<svg width="50" height="42" viewBox="0 0 50 42" fill="none" xmlns="http://www.w3.org/2000/svg">
<path d="M38.5626 0.129836C33.359 -0.624272 28.0335 1.95311 24.9886 6.65054C21.9254 1.96531 16.5857 -0.59175 11.3882 0.182685C6.4469 0.9185 2.60522 4.52033 0.956747 8.56122C-0.894986 13.1001 0.411999 17.2264 0.977073 19.0069C2.4426 23.6231 5.70702 26.3204 9.35561 29.4384C11.6301 31.3816 11.5935 30.9365 17.724 35.6888C20.1936 37.6035 23.1694 39.1768 24.9541 41.6668C24.9927 41.7176 25.0313 41.7745 25.0659 41.8294C25.1004 41.7745 25.139 41.7196 25.1777 41.6668C26.9501 39.1687 29.9015 37.5853 32.361 35.6603C38.4752 30.8836 38.4386 31.3308 40.707 29.3775C44.3434 26.2452 47.5977 23.5357 49.0429 18.9134C49.6018 17.1308 50.8946 12.9985 49.0225 8.46772C47.3598 4.43293 43.506 0.847358 38.5605 0.129836H38.5626Z" fill="#E53328"/>
</svg>
